<?xml version="1.0" encoding="utf-8"?>
<!-- Generator: Adobe Illustrator 19.2.0, SVG Export Plug-In . SVG Version: 6.00 Build 0)  -->
<svg version="1.1" id="Layer_1" xmlns="http://www.w3.org/2000/svg" xmlns:xlink="http://www.w3.org/1999/xlink" x="0px" y="0px"
	 viewBox="0 0 70 70" style="enable-background:new 0 0 70 70;" xml:space="preserve">
<style type="text/css">
	.st0{fill:#F26B21;}
</style>
<g>
	<path class="st0" d="M34.9,69.1C16.1,69.1,0.8,53.8,0.8,35S16.1,0.9,34.9,0.9S69,16.2,69,35S53.7,69.1,34.9,69.1z M34.9,2.9
		C17.2,2.9,2.8,17.3,2.8,35s14.4,32.1,32.1,32.1S67,52.7,67,35S52.6,2.9,34.9,2.9z"/>
</g>
<path class="st0" d="M20.2,27.7c0-0.4,0-0.7,0-1.1c0-0.2,0.1-0.4,0.1-0.6c0.1-0.7,0.1-1.5,0.3-2.2c0.8-3.6,2.8-6.6,5.8-8.7
	c3.5-2.5,7.4-3.3,11.6-2.4c2.8,0.6,5.2,1.9,7.2,3.8c2.3,2.2,3.7,4.9,4.2,8c0.1,0.7,0.2,1.4,0.3,2.1c0,0.3,0,0.7,0,1
	c-0.1,0.6-0.1,1.2-0.2,1.8c-0.5,3.1-1.5,6-2.7,8.9c-3,7.2-6.9,13.9-11.1,20.4c-0.1,0.2-0.3,0.3-0.5,0.5c-0.1,0-0.2,0-0.4,0
	c-0.1-0.2-0.3-0.3-0.4-0.5c-4.4-6.2-8.3-12.6-11.2-19.6c-1.1-2.6-2-5.4-2.5-8.2C20.4,29.9,20.3,28.8,20.2,27.7z M35,34.1
	c3.8-0.1,6.8-3.2,6.7-6.9c-0.1-3.9-3.2-6.8-7.1-6.7c-3.6,0.1-6.6,3.3-6.5,6.9C28.2,31.2,31.3,34.2,35,34.1z"/>
</svg>
