<?xml version="1.0" encoding="utf-8"?>
<!-- Generator: Adobe Illustrator 19.2.0, SVG Export Plug-In . SVG Version: 6.00 Build 0)  -->
<svg version="1.1" id="Layer_1" xmlns="http://www.w3.org/2000/svg" xmlns:xlink="http://www.w3.org/1999/xlink" x="0px" y="0px"
	 viewBox="0 0 40 40" style="enable-background:new 0 0 40 40;" xml:space="preserve">
<style type="text/css">
	.st0{fill:#FFFFFF;}
</style>
<g>
	<g>
		<path class="st0" d="M28.1,27.2h-3.4c0-6.6-5.4-12-12-12v-3.4C21.2,11.7,28.1,18.7,28.1,27.2z"/>
	</g>
	<g>
		<path class="st0" d="M22.6,27.7h-3.4c0-3.7-3-6.7-6.7-6.7v-3.4C18,17.6,22.6,22.1,22.6,27.7z"/>
	</g>
	<path class="st0" d="M16.4,26c0,1.3-1,2.3-2.3,2.3c-1.3,0-2.3-1-2.3-2.3c0-1.3,1-2.3,2.3-2.3C15.4,23.7,16.4,24.7,16.4,26z"/>
</g>
</svg>
