<?xml version="1.0" encoding="utf-8"?>
<!-- Generator: Adobe Illustrator 19.2.0, SVG Export Plug-In . SVG Version: 6.00 Build 0)  -->
<svg version="1.1" id="Layer_1" xmlns="http://www.w3.org/2000/svg" xmlns:xlink="http://www.w3.org/1999/xlink" x="0px" y="0px"
	 viewBox="0 0 70 70" style="enable-background:new 0 0 70 70;" xml:space="preserve">
<style type="text/css">
	.st0{fill:#F26B21;}
</style>
<g>
	<path class="st0" d="M37.2,2.9C38,3,38.8,3.1,39.5,3.2c4.8,0.7,9.2,2.4,13.4,5.1c1-1,1.9-2,2.9-3c0.5-0.5,0.9-1,1.4-1.4
		s0.9-0.3,1,0.3c1.2,4.7,2.4,9.3,3.7,14c0.2,0.9,0.1,1.1-0.9,0.9c-4.6-1.2-9.3-2.4-13.9-3.7c-0.8-0.2-0.9-0.5-0.3-1.1
		c0.9-0.9,1.8-1.7,2.7-2.7c-0.6-0.3-1-0.6-1.5-0.9c-4.5-2.4-9.4-3.6-14.5-3.3c-4.2,0.2-8.2,1.4-11.9,3.5c-4.1,2.3-7.5,5.5-9.9,9.5
		c-3.2,5.3-4.7,11-4.1,17.1c1,9,5.4,16,13.1,20.8c5.6,3.5,11.8,4.8,18.4,3.8c8.4-1.4,14.9-5.7,19.4-13c2.6-4.2,4-8.8,4-13.8
		c0-0.6,0.2-0.8,0.8-0.8c1.1,0,2.1,0,3.2,0c0.2,0,0.4,0.1,0.6,0.1c0,0.8,0,1.6,0,2.4c0,0.2-0.1,0.4-0.1,0.6
		c-0.2,1.3-0.3,2.6-0.6,3.9c-1.3,6-4,11.2-8.3,15.6c-5,5.2-11.1,8.3-18.2,9.4c-0.9,0.1-1.7,0.2-2.6,0.4c-1.6,0-3.1,0-4.7,0
		c-0.1,0-0.2-0.1-0.4-0.1c-1.2-0.2-2.4-0.3-3.7-0.5c-5.4-0.9-10.3-3.3-14.5-7C8.1,54.1,4.5,47.6,3.3,39.9C3.2,39,3,38.1,2.9,37.2
		c0-1.5,0-3,0-4.4C3,32.6,3,32.5,3,32.3c0.2-1.3,0.3-2.7,0.6-4C4.7,23,7.1,18.2,10.7,14c5.2-5.9,11.6-9.5,19.4-10.7
		C31,3.2,31.9,3,32.8,2.9C34.3,2.9,35.7,2.9,37.2,2.9z"/>
	<path class="st0" d="M26.2,41.2c0.7,0,1.4,0,2.1,0c2,0,3.9,0,5.9,0c0.5,0,0.7,0.2,0.6,0.7c0,1,0,2,0,3c0,0.4-0.1,0.6-0.6,0.6
		c-4.6,0-9.2,0-13.8,0c-0.5,0-0.6-0.2-0.6-0.6c0-2.4,0.8-4.6,2.6-6.2c1.8-1.6,3.7-3.1,5.6-4.6c0.9-0.7,1.6-1.6,1.9-2.8
		c0.3-1.5-0.5-2.8-1.8-3.2c-1.4-0.4-2.6,0.3-3.1,1.8c-0.2,0.5-0.2,1-0.2,1.5c0,0.4-0.1,0.5-0.5,0.5c-1.2,0-2.4,0-3.6,0
		c-0.2,0-0.5-0.2-0.5-0.4c-0.2-3.2,1.3-6.4,4.7-7.3c2.4-0.6,4.9-0.6,7.1,0.9c1.8,1.2,2.7,2.9,2.8,5C35,33,34,35.3,31.6,37
		c-1.7,1.2-3.4,2.5-5,3.7c-0.2,0.1-0.3,0.3-0.5,0.4C26.1,41.1,26.1,41.1,26.2,41.2z"/>
	<path class="st0" d="M48.4,40.8c0,1.4,0,2.6,0,3.9c0,0.5-0.1,0.8-0.7,0.7c-1.1,0-2.2,0-3.3,0c-0.5,0-0.7-0.2-0.7-0.7
		c0-1.3,0-2.6,0-4c-0.3,0-0.5,0-0.8,0c-2.3,0-5.2,0-7.5,0c0-1,0-1.2,0-1.7c0-0.1,0-2.5-0.1-2.6c0.9-1.2,0.4-0.6,1.6-2.3
		c2.1-3.2,4-6.5,6-9.8c0.2-0.3,0.4-0.5,0.9-0.5c1.3,0,2.6,0,3.9,0c0.6,0,0.7,0.2,0.7,0.7c0,3.8,0,7.7,0,11.5c0,0.3,0,0.5,0,0.9
		c0.7,0,1.2,0,1.8,0c0.4,0,0.5,0.1,0.5,0.5c0,0.9,0,1.8,0,2.8c0,0.4-0.2,0.6-0.6,0.5C49.6,40.8,49,40.8,48.4,40.8z M43.7,36.9
		c0-2.4,0-4.7,0-7.2c-1.5,2.5-2.9,4.8-4.3,7.2C40.9,36.9,42.2,36.9,43.7,36.9z"/>
	<path class="st0" d="M36.6,12.3c0,0.5,0,1.1,0,1.6c0,0.6-0.2,0.7-0.7,0.7c-1.8,0-1.8,0-1.8-1.9c0-0.7,0-1.4,0-2.1
		c0-0.4,0.1-0.6,0.6-0.6c2-0.1,2-0.1,2,1.9C36.6,12.1,36.6,12.2,36.6,12.3z"/>
	<path class="st0" d="M13,35.9c-0.6,0-1.2,0-1.7,0c-0.4,0-0.5-0.1-0.5-0.5c0-0.5,0-1.1,0-1.6c0-0.2,0.3-0.4,0.5-0.4
		c1.2,0,2.4,0,3.6,0c0.2,0,0.4,0.3,0.4,0.5c0.1,0.5,0.1,1.1,0,1.6c0,0.2-0.3,0.4-0.5,0.4C14.2,35.9,13.6,35.9,13,35.9z"/>
	<path class="st0" d="M34,56.9c0-0.6,0-1.1,0-1.7c0-0.5,0.2-0.6,0.6-0.6c1.9,0,1.9,0,1.9,1.9c0,0.7,0,1.4,0,2.1
		c0,0.4-0.1,0.6-0.5,0.6c-0.5,0-1,0-1.5,0c-0.2,0-0.4-0.3-0.5-0.5C34,58.1,34,57.5,34,56.9z"/>
</g>
</svg>
