<?xml version="1.0" encoding="utf-8"?>
<!-- Generator: Adobe Illustrator 19.2.0, SVG Export Plug-In . SVG Version: 6.00 Build 0)  -->
<svg version="1.1" id="Layer_1" xmlns="http://www.w3.org/2000/svg" xmlns:xlink="http://www.w3.org/1999/xlink" x="0px" y="0px"
	 viewBox="0 0 40 40" style="enable-background:new 0 0 40 40;" xml:space="preserve">
<style type="text/css">
	.st0{fill-rule:evenodd;clip-rule:evenodd;fill:#FFFFFF;}
</style>
<g>
	<path class="st0" d="M9.5,26.7c1.6,0.1,3.1-0.1,4.5-0.8c0.6-0.3,1.2-0.6,1.8-1.1c-0.7,0-1.3-0.2-1.9-0.5c-1-0.5-1.7-1.3-2.1-2.3
		c-0.1-0.2-0.1-0.2,0.2-0.2c0.7,0.1,1.2,0,1.6-0.1c-0.4-0.1-0.7-0.2-1-0.4c-1.4-0.8-2.2-2-2.3-3.7c0-0.2,0-0.2,0.2-0.1
		c0.5,0.3,1.1,0.4,1.7,0.4c-0.3-0.2-0.5-0.4-0.7-0.7c-1.2-1.3-1.5-3.3-0.7-4.9c0.1-0.2,0.2-0.2,0.3,0c2,2.3,4.5,3.7,7.5,4.2
		c0.3,0,0.7,0.1,1,0.1c0.2,0,0.2-0.1,0.2-0.2c-0.3-1.8,0.5-3.6,2.2-4.5c1.6-1,3.8-0.7,5.1,0.6c0.1,0.1,0.3,0.2,0.5,0.1
		c0.8-0.2,1.6-0.5,2.3-0.9c0,0,0.1,0,0.2-0.1c-0.3,1-0.9,1.8-1.8,2.4c0.8-0.1,1.6-0.3,2.3-0.6c0,0.1-0.1,0.2-0.1,0.2
		c-0.5,0.7-1.1,1.3-1.8,1.8c-0.1,0.1-0.2,0.2-0.2,0.4c0,3.2-1,6-3,8.5c-1.9,2.3-4.3,3.6-7.2,4.1C15.1,28.9,12.3,28.4,9.5,26.7
		C9.6,26.7,9.5,26.7,9.5,26.7z"/>
</g>
</svg>
