<?xml version="1.0" encoding="utf-8"?>
<!-- Generator: Adobe Illustrator 19.2.0, SVG Export Plug-In . SVG Version: 6.00 Build 0)  -->
<svg version="1.1" id="Layer_1" xmlns="http://www.w3.org/2000/svg" xmlns:xlink="http://www.w3.org/1999/xlink" x="0px" y="0px"
	 viewBox="0 0 40 40" style="enable-background:new 0 0 40 40;" xml:space="preserve">
<style type="text/css">
	.st0{fill-rule:evenodd;clip-rule:evenodd;fill:#FFFFFF;}
	.st1{fill:#FFFFFF;}
</style>
<g>
	<path class="st0" d="M20.9,21.6c-0.4-0.4-0.9-0.7-1.3-1.1C19,20,19,19.5,19.4,19c0.3-0.3,0.6-0.6,0.9-0.8c1.2-1.1,1.4-2.8,0.5-4.2
		c-0.2-0.3-0.5-0.6-0.8-0.9c0.9,0.1,1.7-0.1,2.4-0.7c-1.6,0-3.1,0-4.6,0c-0.8,0-1.5,0.2-2.2,0.5c-2.1,1-2.8,3.4-1.6,5.2
		c0.7,1,1.8,1.4,3,1.4c0.1,0,0.5-0.2,0.4,0.2c-0.2,0.7,0,1.3,0.5,1.9c-0.3,0-0.4,0-0.6,0c-1.4,0.2-2.7,0.4-3.8,1.2
		c-1.6,1.3-1.4,3.3,0.3,4.4c1.9,1.2,5.5,0.9,7.1-0.6C22.5,25.1,22.6,23.1,20.9,21.6z M16.1,17.9c-0.7-0.9-1-2-0.9-3.2
		c0.1-0.8,0.5-1.4,1.3-1.6c0.8-0.2,1.5,0,2,0.5c0.8,0.9,1.1,1.9,1.2,2.9c0,1.3-0.4,1.9-1.3,2.2C17.5,19,16.6,18.7,16.1,17.9z
		 M20.7,25c-0.1,0.8-0.6,1.3-1.2,1.6c-0.6,0.3-1.2,0.4-1.8,0.3c-0.9-0.1-1.8-0.2-2.5-0.7c-1.4-1-1.3-2.9,0.3-3.7
		c0.9-0.5,1.9-0.6,2.9-0.5C19.4,22.1,20.9,24,20.7,25z"/>
	<g>
		<path class="st1" d="M24.5,17.1v-1.9h-1.9V14h1.9v-1.9h1.2V14h1.9v1.3h-1.9v1.9H24.5z"/>
	</g>
</g>
</svg>
