<?xml version="1.0" encoding="utf-8"?>
<!-- Generator: Adobe Illustrator 19.2.0, SVG Export Plug-In . SVG Version: 6.00 Build 0)  -->
<svg version="1.1" id="Layer_1" xmlns="http://www.w3.org/2000/svg" xmlns:xlink="http://www.w3.org/1999/xlink" x="0px" y="0px"
	 viewBox="0 0 40 40" style="enable-background:new 0 0 40 40;" xml:space="preserve">
<style type="text/css">
	.st0{fill:#FFFFFF;}
</style>
<g>
	<path class="st0" d="M10.3,12.7c6.5,0,13.1,0,19.6,0c0.7,0.7,0.7,0.7,0,1.5c-1.5,1.5-3.1,3.1-4.6,4.6c-1.5,1.5-2.9,2.9-4.4,4.4
		c-0.5,0.5-1,0.5-1.4,0.1c-3.2-3.1-6.3-6.3-9.5-9.5c-0.3-0.3-0.2-0.6,0-0.9C10,12.8,10.1,12.7,10.3,12.7z"/>
	<path class="st0" d="M29.7,27.3c-6.7,0-12.6,0-19.3,0c-0.5,0-0.8-0.6-0.8-0.8c0-0.1,0.1-0.1,0.1-0.2c1.7-1.8,3.5-3.5,5.2-5.3
		c0.2-0.2,0.4-0.2,0.6,0c0.9,1,1.9,1.9,2.9,2.9c1,1,2.2,1,3.2,0c1-1,1.9-1.9,2.9-2.9c0.2-0.2,0.4-0.3,0.7,0c1.7,1.7,3.4,3.4,5,5.1
		c0.1,0.1,0.2,0.5,0.1,0.7C30.2,27,29.9,27.2,29.7,27.3z"/>
	<path class="st0" d="M9.6,15.8c0-0.1,0.1-0.3,0.1-0.3c1.5,1.5,3.1,3.1,4.7,4.7c-0.6,0.6-1.4,1.4-2.1,2.1c-0.7,0.7-1.4,1.4-2.1,2.1
		c-0.1,0.1-0.3,0.2-0.5,0.3C9.6,21.7,9.6,18.7,9.6,15.8z"/>
	<path class="st0" d="M30.3,15.8c0-0.1-0.1-0.3-0.1-0.3c-1.5,1.5-3.1,3.1-4.7,4.7c0.6,0.6,1.4,1.4,2.1,2.1c0.7,0.7,1.4,1.4,2.1,2.1
		c0.1,0.1,0.3,0.2,0.5,0.3C30.3,21.7,30.3,18.7,30.3,15.8z"/>
</g>
</svg>
