<?xml version="1.0" encoding="utf-8"?>
<!-- Generator: Adobe Illustrator 19.2.0, SVG Export Plug-In . SVG Version: 6.00 Build 0)  -->
<svg version="1.1" id="Layer_1" xmlns="http://www.w3.org/2000/svg" xmlns:xlink="http://www.w3.org/1999/xlink" x="0px" y="0px"
	 viewBox="0 0 100 100" style="enable-background:new 0 0 100 100;" xml:space="preserve">
<style type="text/css">
	.st0{fill:#FD6A01;}
</style>
<g>
	<path class="st0" d="M95.6,12.2c0,5.3,0,10.5,0,15.8c-0.1,0.2-0.2,0.4-0.2,0.6c-0.5,2.9-2.1,4.9-4.6,6.2c-0.8,0.4-1,0.8-1,1.6
		c0,16.9,0,33.8,0,50.7c0,3.9-2.7,7.4-6.6,8.3c-0.4,0.1-0.8,0.2-1.1,0.3c-21.4,0-42.7,0-64.1,0c-0.2-0.1-0.4-0.2-0.6-0.2
		c-4.3-0.8-7.1-4.2-7.1-8.5c0-16.8,0-33.6,0-50.5c0-0.8-0.2-1.2-1-1.6c-2.4-1.1-3.9-3.1-4.5-5.6c-0.1-0.4-0.2-0.8-0.3-1.1
		c0-5.2,0-10.4,0-15.6c0.1-0.3,0.2-0.5,0.3-0.8c0.7-3.5,2.7-5.7,6-6.7c0.5-0.2,1.1-0.3,1.7-0.4c25.1,0,50.3,0,75.4,0
		c0.2,0.1,0.4,0.2,0.7,0.3c3.3,0.6,6.1,3.2,6.8,6.5C95.4,11.5,95.5,11.9,95.6,12.2z M50.1,35.6c-11,0-22,0-33.1,0
		c-1.4,0-1.4,0-1.4,1.4c0,16.5,0,33,0,49.6c0,0.4,0,0.7,0.1,1.1c0.4,1.5,1.6,2.4,3.4,2.4c20.6,0,41.2,0,61.8,0
		c2.2,0,3.4-1.3,3.4-3.5c0-16.6,0-33.2,0-49.7c0-0.9-0.3-1.2-1.2-1.2C72.1,35.7,61.1,35.7,50.1,35.6z M50,30.2c12.2,0,24.3,0,36.5,0
		c2.3,0,3.6-1.2,3.6-3.5c0-4.3,0-8.6,0-12.9c0-2.8-1.1-3.9-3.9-3.9c-9.2,0-18.5,0-27.7,0c-15,0-30,0-45,0c-2.4,0-3.5,1.2-3.6,3.5
		c0,4.4,0,8.8,0,13.2c0,2.3,1.3,3.5,3.6,3.5C25.7,30.2,37.8,30.2,50,30.2z"/>
	<path class="st0" d="M50,55.5c-4.2,0-8.4,0-12.6,0c-2.5,0-4.3-1.8-4.3-4.1c0-2.4,1.9-4.1,4.4-4.1c8.4,0,16.9,0,25.3,0
		c1.9,0,3.4,1.1,4,2.8s0.2,3.5-1.3,4.5c-0.8,0.5-1.8,0.9-2.7,0.9C58.4,55.6,54.2,55.5,50,55.5z"/>
</g>
</svg>
