<?xml version="1.0" encoding="utf-8"?>
<!-- Generator: Adobe Illustrator 19.2.0, SVG Export Plug-In . SVG Version: 6.00 Build 0)  -->
<svg version="1.1" xmlns="http://www.w3.org/2000/svg" xmlns:xlink="http://www.w3.org/1999/xlink" x="0px" y="0px"
	 viewBox="0 0 320 60" style="enable-background:new 0 0 320 60;" xml:space="preserve">
<style type="text/css">
	.st0{fill:#737373;}
	.st1{fill:#515252;}
	.st2{fill:#F36B21;}
</style>
<g id="Layer_1">
	<path class="st0" d="M71.1,0.6c-4.3,0-8.3,0.9-12,2.5c2.3-0.6,4.6-0.9,7.1-0.9c15,0,27.1,12.2,27.1,27.1S81.2,56.5,66.2,56.5
		c-6.3,0-12.2-2.2-16.8-5.8c5.4,5.8,13.1,9.4,21.7,9.4c16.4,0,29.7-13.3,29.7-29.7S87.5,0.6,71.1,0.6z"/>
	<g>
		<path class="st1" d="M124.4,14.5l8.1,22.8l8-22.8h8.5v31.4h-6.5v-8.6l0.6-14.8l-8.5,23.4h-4.4l-8.5-23.4l0.6,14.8v8.6h-6.5V14.5
			H124.4z"/>
		<path class="st1" d="M152.1,34.1c0-2.3,0.4-4.4,1.3-6.2c0.9-1.8,2.2-3.2,3.9-4.2c1.7-1,3.6-1.5,5.8-1.5c3.2,0,5.7,1,7.7,2.9
			c2,1.9,3.1,4.5,3.3,7.9l0,1.6c0,3.6-1,6.5-3,8.6c-2,2.2-4.7,3.2-8,3.2s-6.1-1.1-8.1-3.2c-2-2.2-3-5.1-3-8.8V34.1z M158.4,34.5
			c0,2.2,0.4,3.9,1.3,5.1c0.8,1.2,2,1.8,3.6,1.8c1.5,0,2.7-0.6,3.5-1.7c0.8-1.2,1.3-3,1.3-5.6c0-2.2-0.4-3.9-1.3-5.1s-2-1.8-3.6-1.8
			c-1.5,0-2.7,0.6-3.5,1.8C158.8,30.2,158.4,32,158.4,34.5z"/>
		<path class="st1" d="M185.4,38.3l4.3-15.7h6.5l-7.9,23.3h-6l-7.9-23.3h6.5L185.4,38.3z"/>
		<path class="st1" d="M197.9,16.6c0-0.9,0.3-1.7,0.9-2.3c0.6-0.6,1.5-0.9,2.6-0.9c1.1,0,1.9,0.3,2.5,0.9c0.6,0.6,0.9,1.4,0.9,2.3
			c0,0.9-0.3,1.7-1,2.3c-0.6,0.6-1.5,0.9-2.5,0.9c-1,0-1.9-0.3-2.5-0.9C198.2,18.3,197.9,17.5,197.9,16.6z M204.5,45.9h-6.3V22.6
			h6.3V45.9z"/>
		<path class="st1" d="M214.2,22.6l0.2,2.7c1.7-2.1,3.9-3.1,6.7-3.1c2.5,0,4.3,0.7,5.5,2.2c1.2,1.5,1.8,3.6,1.9,6.5v15.1h-6.2V31
			c0-1.3-0.3-2.3-0.9-2.9c-0.6-0.6-1.5-0.9-2.9-0.9c-1.8,0-3.1,0.8-3.9,2.2v16.5h-6.2V22.6H214.2z"/>
		<path class="st1" d="M231.2,34.1c0-3.6,0.9-6.5,2.6-8.7c1.7-2.2,4-3.3,6.9-3.3c2.6,0,4.6,0.9,6,2.6l0.3-2.2h5.7v22.6
			c0,2-0.5,3.8-1.4,5.3c-0.9,1.5-2.2,2.7-3.9,3.5c-1.7,0.8-3.7,1.2-5.9,1.2c-1.7,0-3.4-0.3-5-1c-1.6-0.7-2.9-1.6-3.7-2.6l2.8-3.8
			c1.6,1.7,3.4,2.6,5.7,2.6c1.7,0,2.9-0.4,3.9-1.3s1.4-2.1,1.4-3.8v-1.3c-1.4,1.6-3.3,2.4-5.7,2.4c-2.8,0-5.1-1.1-6.8-3.3
			c-1.7-2.2-2.6-5.1-2.6-8.7V34.1z M237.5,34.5c0,2.1,0.4,3.8,1.3,5c0.8,1.2,2,1.8,3.5,1.8c1.9,0,3.3-0.7,4.1-2.1v-9.9
			c-0.8-1.4-2.2-2.1-4-2.1c-1.5,0-2.7,0.6-3.5,1.8C237.9,30.3,237.5,32.1,237.5,34.5z"/>
	</g>
	<g>
		<path class="st2" d="M255.4,44.1c0-1,0.3-1.8,1-2.4c0.7-0.6,1.5-0.9,2.5-0.9c1,0,1.9,0.3,2.5,0.9c0.7,0.6,1,1.4,1,2.4
			c0,1-0.3,1.8-1,2.4c-0.7,0.6-1.5,0.9-2.5,0.9c-1,0-1.9-0.3-2.5-0.9C255.7,45.9,255.4,45.1,255.4,44.1z"/>
		<path class="st2" d="M287.8,35.7c0,3.7-0.8,6.7-2.4,8.8c-1.6,2.1-3.8,3.1-6.7,3.1c-2.5,0-4.6-1-6.1-2.9l-0.3,2.5h-5.6V14h6.2v11.9
			c1.4-1.7,3.3-2.5,5.7-2.5c2.8,0,5.1,1,6.7,3.1c1.6,2.1,2.4,5,2.4,8.8V35.7z M281.6,35.2c0-2.4-0.4-4.1-1.1-5.2
			c-0.7-1.1-1.9-1.6-3.3-1.6c-2,0-3.4,0.8-4.1,2.4v9.2c0.8,1.6,2.1,2.5,4.1,2.5c2,0,3.3-1,4-3C281.4,38.6,281.6,37.2,281.6,35.2z"/>
		<path class="st2" d="M290.5,17.8c0-0.9,0.3-1.7,0.9-2.3c0.6-0.6,1.5-0.9,2.6-0.9c1.1,0,1.9,0.3,2.5,0.9c0.6,0.6,0.9,1.4,0.9,2.3
			c0,0.9-0.3,1.7-1,2.3c-0.6,0.6-1.5,0.9-2.5,0.9c-1,0-1.9-0.3-2.5-0.9C290.8,19.5,290.5,18.7,290.5,17.8z M297.1,47.2h-6.3V23.8
			h6.3V47.2z"/>
		<path class="st2" d="M308.3,42.1h11.4v5h-19.4v-3.8l11-14.5h-10.7v-5h18.7v3.7L308.3,42.1z"/>
	</g>
	<polygon class="st2" points="63.8,8.2 59.2,14.9 59.2,8.2 50.4,8.2 45.4,8.2 21.3,8.2 30.4,9.8 46.2,12.6 49.2,13.2 40.6,15.1 
		38.3,18.5 15.9,18.5 25,20.1 40.7,22.9 43.7,23.5 33.3,25.8 31.9,27.8 9.6,27.8 18.7,29.4 34.4,32.3 37.4,32.8 26.9,35.2 
		25.6,37.1 4.1,37.1 13.2,38.7 28.9,41.5 31.9,42.1 20.3,44.7 18.6,47.2 34.5,47.2 49.1,22.9 49.3,22.9 49.3,46.8 63.5,22.9 
		63.7,22.9 63.7,47.2 63.8,47.2 75.1,47.2 75.1,8.2 	"/>
</g>
<g id="Layer_2">
</g>
</svg>
