<?xml version="1.0" encoding="utf-8"?>
<!-- Generator: Adobe Illustrator 19.2.0, SVG Export Plug-In . SVG Version: 6.00 Build 0)  -->
<svg version="1.1" id="Layer_1" xmlns="http://www.w3.org/2000/svg" xmlns:xlink="http://www.w3.org/1999/xlink" x="0px" y="0px"
	 viewBox="0 0 70 70" style="enable-background:new 0 0 70 70;" xml:space="preserve">
<style type="text/css">
	.st0{fill:#E01076;}
</style>
<path class="st0" d="M16.6,27.2c0-0.5,0.2-1.2,0.2-1.7c0.2-1.7,0.7-3.5,1.7-4.8c0.9-1.6,2.1-2.6,3.5-3.6c0.3-0.3,0.7-0.7,1-0.9
	c1.2-1,2.6-0.9,3.8,0.2c1.2,1.2,2.1,2.8,2.9,4.2c0.5,0.9,1,1.9,1.4,2.9c0.3,1.4,0,2.8-1,3.6c-0.9,0.7-1.7,1.4-2.6,2.1
	c-1,0.9-1.4,1.9-1.2,3.3c0.3,1.7,1.4,3.1,2.3,4.5c1.6,2.1,3.3,4,5.2,5.7c1,0.7,1.9,1.4,3.3,1.7c1,0.2,1.9,0,2.8-0.9
	c0.9-0.7,1.6-1.6,2.4-2.3c1.2-1,2.6-1.2,4-0.5c1,0.3,1.9,1,2.6,1.7c1,0.9,2.1,1.9,3.1,2.8c0.3,0.3,0.7,0.7,0.9,1.2
	c0.5,1,0.5,2.3-0.3,3.1c-1.6,1.6-3.3,3.1-5.4,4.2c-1.9,0.9-4,1-6.1,0.9c-3.8-0.3-7.1-2.1-10-4.3c-4.7-3.8-8.7-8.3-11.6-13.5
	c-1.4-2.3-2.3-4.8-2.6-7.4c0-0.5,0-0.9-0.2-1.4C16.6,27.7,16.6,27.5,16.6,27.2L16.6,27.2z"/>
<g>
	<path class="st0" d="M34.9,69.1C16.1,69.1,0.8,53.8,0.8,35S16.1,0.9,34.9,0.9S69,16.2,69,35S53.7,69.1,34.9,69.1z M34.9,2.9
		C17.2,2.9,2.8,17.3,2.8,35s14.4,32.1,32.1,32.1S67,52.7,67,35S52.6,2.9,34.9,2.9z"/>
</g>
</svg>
