<?xml version="1.0" encoding="utf-8"?>
<!-- Generator: Adobe Illustrator 19.2.0, SVG Export Plug-In . SVG Version: 6.00 Build 0)  -->
<svg version="1.1" id="Layer_1" xmlns="http://www.w3.org/2000/svg" xmlns:xlink="http://www.w3.org/1999/xlink" x="0px" y="0px"
	 viewBox="0 0 70 70" style="enable-background:new 0 0 70 70;" xml:space="preserve">
<style type="text/css">
	.st0{fill:#E01076;}
</style>
<g>
	<path class="st0" d="M34.9,69.1C16.1,69.1,0.8,53.8,0.8,35S16.1,0.9,34.9,0.9S69,16.2,69,35S53.7,69.1,34.9,69.1z M34.9,2.9
		C17.2,2.9,2.8,17.3,2.8,35s14.4,32.1,32.1,32.1S67,52.7,67,35S52.6,2.9,34.9,2.9z"/>
</g>
<g>
	<path class="st0" d="M17.2,23.1c11.9,0,23.9,0,35.8,0c1.3,1.3,1.3,1.3,0,2.7c-2.7,2.7-5.7,5.7-8.4,8.4s-5.3,5.3-8,8
		c-0.9,0.9-1.8,0.9-2.6,0.2c-5.8-5.7-11.5-11.5-17.3-17.3c-0.5-0.5-0.4-1.1,0-1.6C16.6,23.2,16.8,23.1,17.2,23.1z"/>
	<path class="st0" d="M52.6,49.7c-12.2,0-23,0-35.2,0c-0.9,0-1.5-1.1-1.5-1.5c0-0.2,0.2-0.2,0.2-0.4c3.1-3.3,6.4-6.4,9.5-9.7
		c0.4-0.4,0.7-0.4,1.1,0c1.6,1.8,3.5,3.5,5.3,5.3c1.8,1.8,4,1.8,5.8,0s3.5-3.5,5.3-5.3c0.4-0.4,0.7-0.5,1.3,0
		c3.1,3.1,6.2,6.2,9.1,9.3c0.2,0.2,0.4,0.9,0.2,1.3C53.5,49.2,53,49.5,52.6,49.7z"/>
	<path class="st0" d="M15.9,28.7c0-0.2,0.2-0.5,0.2-0.5c2.7,2.7,5.7,5.7,8.6,8.6c-1.1,1.1-2.6,2.6-3.8,3.8c-1.3,1.3-2.6,2.6-3.8,3.8
		c-0.2,0.2-0.5,0.4-0.9,0.5C15.9,39.5,15.9,34,15.9,28.7z"/>
	<path class="st0" d="M53.7,28.7c0-0.2-0.2-0.5-0.2-0.5c-2.7,2.7-5.7,5.7-8.6,8.6c1.1,1.1,2.6,2.6,3.8,3.8s2.6,2.6,3.8,3.8
		c0.2,0.2,0.5,0.4,0.9,0.5C53.7,39.5,53.7,34,53.7,28.7z"/>
</g>
</svg>
