<?xml version="1.0" encoding="utf-8"?>
<!-- Generator: Adobe Illustrator 19.2.0, SVG Export Plug-In . SVG Version: 6.00 Build 0)  -->
<svg version="1.1" id="Layer_1" xmlns="http://www.w3.org/2000/svg" xmlns:xlink="http://www.w3.org/1999/xlink" x="0px" y="0px"
	 viewBox="0 0 70 70" style="enable-background:new 0 0 70 70;" xml:space="preserve">
<style type="text/css">
	.st0{fill:#E01076;}
</style>
<g>
	<g>
		<path class="st0" d="M65.3,26.5c0,9.7,0,19.4,0,29.1c-0.1,0.2-0.1,0.4-0.2,0.5c-0.5,4.3-4.4,7.8-8.7,7.8c-14.2,0-28.5,0-42.7,0
			c-4.1,0-7.8-3-8.7-7c-0.1-0.4-0.2-0.9-0.3-1.3c0-9.7,0-19.4,0-29.1c0.1-0.2,0.1-0.3,0.2-0.5c0.2-2.3,0.9-4.3,2.2-6.2
			c2.7-4,6.5-6.2,11.4-6.3c2.2,0,4.4-0.1,6.5,0c1.6,0.1,2.9-0.4,4.3-1.1c3.2-1.8,6.4-3.5,9.6-5.2c3.2-1.6,6.4-1.3,9.4,0.7
			c1.5,1,2.6,2.5,3.3,4.2c0.3,0.8,0.7,1.4,1.7,1.5c5.8,0.8,10.3,5,11.6,10.7C65,25,65.1,25.8,65.3,26.5z M35,24.1c-7,0-14,0-21.1,0
			c-2.3,0-4.1,1.1-5.2,3.2C8.1,28.5,8,29.8,8,31c0,7.8,0,15.5,0,23.3c0,0.5,0.1,1.1,0.2,1.6c0.7,2.9,3,4.7,6,4.7c5,0,10,0,15,0
			c8.8,0,17.6,0,26.5,0c3.1,0,5.5-1.9,6.1-4.8c0.2-1.2,0.1-2.4,0.2-3.7c0-0.6-0.2-0.8-0.8-0.8c-2.6,0-5.2,0-7.7,0
			c-0.6,0-1.2,0-1.8-0.2c-6.4-1.5-8.8-8.3-5.9-13.4c1.7-3,4.5-4.5,8-4.6c2.5,0,5.1,0,7.6,0c0.5,0,0.7-0.2,0.7-0.7
			c0-0.9-0.1-1.9-0.1-2.8c-0.1-3.2-2.6-5.7-5.9-5.7C49,24.1,42,24.1,35,24.1z M47.6,11.9c-0.3-0.3-0.4-0.6-0.6-0.8
			c-1.9-1.6-4.2-2.2-6.6-0.9c-2,1.1-4.1,2.2-6.1,3.3c-4.4,2.4-8.7,4.7-13.1,7.1c-0.1,0.1-0.2,0.2-0.5,0.4c0.4,0,0.6,0,0.8,0
			c2.8,0,5.6,0,8.4,0c0.6,0,1.3-0.2,1.9-0.5c4.7-2.5,9.4-5,14.1-7.6C46.4,12.5,47,12.2,47.6,11.9z M61.9,42.3c0-1.8,0-3.5,0-5.3
			c0-0.4-0.1-0.6-0.5-0.6c-2.7,0-5.5,0-8.2,0.1c-3.2,0.2-5.5,2.9-5.4,6.1c0.1,2.9,2.8,5.5,5.8,5.5c2.5,0,5.1,0,7.6,0
			c0.5,0,0.7-0.2,0.7-0.7C61.9,45.8,61.9,44,61.9,42.3z M52.1,20.8C52,20.6,52,20.5,52,20.4c-0.8-1.7-1.7-3.4-2.5-5.1
			c-0.2-0.4-0.3-0.4-0.7-0.2c-3.4,1.8-6.7,3.6-10.1,5.4c-0.1,0.1-0.2,0.2-0.4,0.3C42.9,20.8,47.5,20.8,52.1,20.8z M10,21.6
			c0.9-0.2,1.6-0.4,2.4-0.6c0.4-0.1,0.9-0.1,1.3-0.3c2.2-1.2,4.4-2.4,6.6-3.6c0.1-0.1,0.2-0.2,0.4-0.3C16.6,16,11.6,18.3,10,21.6z
			 M60,21.6c-0.7-1.7-4.3-4.4-5.9-4.3c0.4,0.8,0.9,1.5,1.2,2.3c0.3,1,0.9,1.5,2,1.3c0.2,0,0.4,0,0.6,0.1
			C58.5,21.2,59.3,21.4,60,21.6z"/>
		<path class="st0" d="M53.7,38.3c2.5,0,4.1,1.7,4.1,4.2c0,2.3-1.8,4-4.2,4c-1.9,0-4.1-1.7-4-4.2C49.5,40.3,51.4,38,53.7,38.3z
			 M54.4,42.4c0-0.5-0.4-0.9-0.8-0.9c-0.5,0-0.8,0.3-0.8,0.8c-0.1,0.4,0.3,0.8,0.8,0.8C54.1,43.1,54.3,42.9,54.4,42.4z"/>
	</g>
	<path class="st0" d="M13,46c-1.6,0-3.3,0-4.9,0c-1.1,0-1.5-0.4-1.5-1.4c0-1.5,0-2.9,0-4.4c0-1.2,0.5-1.5,1.6-1.5c3.2,0,6.5,0,9.7,0
		c1.1,0,1.5,0.4,1.6,1.5c0.2,5.7,0.3,5.7-5.3,5.7C13.8,46,13.4,46,13,46z"/>
</g>
</svg>
