<?xml version="1.0" encoding="utf-8"?>
<!-- Generator: Adobe Illustrator 19.2.0, SVG Export Plug-In . SVG Version: 6.00 Build 0)  -->
<svg version="1.1" id="Layer_1" xmlns="http://www.w3.org/2000/svg" xmlns:xlink="http://www.w3.org/1999/xlink" x="0px" y="0px"
	 viewBox="0 0 50 50" style="enable-background:new 0 0 50 50;" xml:space="preserve">
<style type="text/css">
	.st0{fill:#F1F2F2;}
</style>
<path class="st0" d="M22.4,13c0.3,0,0.6,0,0.8,0c0,0,0.1,0,0.1,0c0.6,0,1.1,0.1,1.6,0.2c1.6,0.4,3.1,1.1,4.3,2.2
	c2,1.8,3.2,4.1,3.3,6.9c0.1,0.8,0,1.5-0.1,2.3C32.4,25.8,32,27,31.3,28c0,0,0,0.1-0.1,0.1c0,0,0.1,0.1,0.1,0.1
	c1.9,1.9,3.7,3.7,5.6,5.6c0.1,0.1,0.2,0.2,0.2,0.3c0,0.1,0,0.2,0,0.3c0,0.1,0,0.2-0.1,0.2c-0.1,0.3-0.3,0.6-0.5,0.8
	c-0.3,0.3-0.6,0.6-0.9,0.9c-0.3,0.3-0.6,0.5-1.1,0.6c0,0,0,0,0,0c-0.1,0-0.2,0-0.3,0c-0.1,0-0.2-0.1-0.3-0.2
	c-1.8-1.8-3.7-3.7-5.5-5.5c0,0-0.1-0.1-0.1-0.1c0,0,0,0,0,0c0,0-0.1,0-0.1,0.1c-1.4,0.9-3,1.4-4.7,1.5c-0.5,0-1.1,0-1.6,0
	c-0.5-0.1-1-0.1-1.6-0.3c-2-0.5-3.7-1.6-5.1-3.2c-1.4-1.6-2.1-3.6-2.3-5.7c0-0.1,0-0.2,0-0.2c0-0.3,0-0.6,0-0.9c0,0,0-0.1,0-0.1
	c0-0.1,0-0.3,0-0.4c0.1-0.6,0.2-1.2,0.3-1.7c1.1-4.1,4.8-7,9-7.3C22.3,13,22.4,13,22.4,13z M16.2,22.9c0,3.6,2.9,6.6,6.6,6.6
	c3.7,0,6.6-3,6.6-6.6c0-3.7-3-6.6-6.6-6.6C19.2,16.3,16.2,19.2,16.2,22.9z"/>
</svg>
