<?xml version="1.0" encoding="utf-8"?>
<!-- Generator: Adobe Illustrator 19.2.0, SVG Export Plug-In . SVG Version: 6.00 Build 0)  -->
<svg version="1.1" id="Layer_1" xmlns="http://www.w3.org/2000/svg" xmlns:xlink="http://www.w3.org/1999/xlink" x="0px" y="0px"
	 viewBox="0 0 70 70" style="enable-background:new 0 0 70 70;" xml:space="preserve">
<style type="text/css">
	.st0{fill:#E01076;}
</style>
<g>
	<path class="st0" d="M4.4,37.5c0.1,0,0.2-0.1,0.2-0.1c0.3-1,0.9-1.7,1.7-2.4c9.6-9.6,19.3-19.2,28.9-28.9c1.2-1.2,2.5-1.7,4.1-1.7
		c7.3,0,14.5,0,21.8,0c2.6,0,4.7,2,4.7,4.7c0.1,7.3,0,14.5,0,21.8c0,1.5-0.5,2.9-1.7,4.1c-9.7,9.7-19.5,19.4-29.2,29.1
		c-0.6,0.6-1.2,1.1-2.1,1.4c-0.1,0-0.2,0.1-0.3,0.2c-0.7,0-1.4,0-2.1,0c-0.1-0.1-0.2-0.2-0.3-0.2c-0.8-0.2-1.3-0.7-1.9-1.2
		c-7.3-7.3-14.6-14.7-22-22c-0.7-0.7-1.4-1.4-1.7-2.4c0-0.1-0.1-0.1-0.2-0.1C4.4,38.9,4.4,38.2,4.4,37.5z M50.2,7.7L50.2,7.7
		c-3.6,0.1-7.3,0.1-10.9,0.1c-0.5,0-1.1,0.3-1.5,0.6C28,18.2,18.2,28,8.4,37.8c-0.6,0.6-0.6,0.7,0,1.4c3.1,3.1,6.1,6.1,9.2,9.2
		c4.4,4.4,8.9,8.9,13.3,13.3c0.6,0.6,0.7,0.6,1.2,0c0.8-0.8,1.5-1.5,2.3-2.3c9-9,18-18,27-27c0.3-0.3,0.6-0.8,0.8-1.3s0.2-1,0.2-1.6
		c0-6.5,0-13,0-19.4c0-0.7,0-1.5-0.8-1.9c-0.5-0.3-1.2-0.5-1.8-0.5C56.5,7.7,53.3,7.7,50.2,7.7z"/>
	<path class="st0" d="M27.8,44.9c-0.4,0.4-0.8,0.9-1.2,1.3c-0.4,0.4-0.8,0.4-1.1-0.1c-0.2-0.2-0.4-0.5-0.6-0.7
		c-0.4-0.4-0.4-0.7,0-1.1c0.4-0.4,1-0.7,1-1.2c0.1-0.4-0.4-0.9-0.7-1.4c-1.5-3-1.1-6,1-8.6c0.4-0.5,0.7-0.5,1.2,0
		c0.4,0.4,0.9,0.9,1.3,1.3c0.4,0.3,0.4,0.7,0.1,1.1c-0.6,0.7-1.1,1.5-1.1,2.5c0,0.9,0.2,1.8,0.8,2.6c0.2-0.2,0.4-0.4,0.6-0.6
		c1.3-1.3,2.5-2.6,3.9-3.8c0.5-0.5,0.3-0.8,0.1-1.3c-0.5-1-0.9-2.1-1.2-3.2c-0.5-1.7,0.1-3.1,1.2-4.4c1.4-1.7,3.2-2.5,5.4-2.4
		c1.4,0,2.7,0.4,3.9,1.3c0.3,0.3,0.5,0.2,0.8-0.1c1.1-1.1,1.6-1,2.4,0.3c0.1,0.2,0.1,0.7-0.1,1c-0.2,0.3-0.6,0.6-0.8,0.7
		c0.4,1.2,0.8,2.3,1,3.4c0.3,1.2,0,2.4-0.4,3.6c-0.2,0.6-0.6,1.2-0.9,1.8c-0.3,0.5-0.6,0.5-1,0.1c-0.3-0.4-0.7-0.7-1-1
		c-0.8-0.8-0.8-0.8-0.3-1.9c0.3-0.6,0.4-1.3,0.4-2c0-0.4-0.2-0.8-0.4-1.4c-0.9,0.9-1.6,1.6-2.3,2.4c-0.6,0.6-1.2,1.3-1.9,1.9
		c-0.4,0.4-0.4,0.7-0.1,1.1c0.6,1,1.1,2,1.3,3.2c0.3,2.4-0.1,4.5-2.2,6.1c-2.4,2-6.2,1.8-8.5,0C28.3,45.2,28.1,45.1,27.8,44.9z
		 M34.9,38.1c-1.5,1.5-3,3-4.5,4.4c0.7,0.9,2.5,1.2,3.7,0.3C35.9,41.5,36.1,40.1,34.9,38.1z M36.3,32.9c1.3-1.3,2.5-2.5,3.8-3.8
		c0.4-0.4,0-0.5-0.3-0.6c-1.2-0.6-2.3-0.3-3.3,0.6C35.2,30.1,35.1,31.7,36.3,32.9z"/>
	<path class="st0" d="M53.4,22.2c-3.1,0.1-5.7-2.5-5.6-5.8c0.1-2.9,2.3-5.5,5.6-5.5s5.7,2.4,5.7,5.7C59.1,19.9,56.5,22.3,53.4,22.2z
		 M53.4,18.7c1.1,0,2.2-1,2.2-2.1c0-1.2-1.1-2.3-2.2-2.3c-1,0-2.1,1.1-2.1,2.1C51.2,17.7,52.2,18.7,53.4,18.7z"/>
</g>
</svg>
