<?xml version="1.0" encoding="utf-8"?>
<!-- Generator: Adobe Illustrator 19.2.0, SVG Export Plug-In . SVG Version: 6.00 Build 0)  -->
<svg version="1.1" id="Layer_1" xmlns="http://www.w3.org/2000/svg" xmlns:xlink="http://www.w3.org/1999/xlink" x="0px" y="0px"
	 viewBox="0 0 40 40" style="enable-background:new 0 0 40 40;" xml:space="preserve">
<style type="text/css">
	.st0{fill:#FFFFFF;}
</style>
<g>
	<path class="st0" d="M13.6,16.1v-2.2h2.3v2.2H13.6z M13.6,26.1v-8.8h2.3v8.8H13.6z"/>
	<path class="st0" d="M26.4,26.1H24v-4.5c0-0.9,0-1.6-0.2-1.8c-0.1-0.3-0.2-0.5-0.5-0.7c-0.2-0.2-0.5-0.2-0.8-0.2
		c-0.4,0-0.8,0.1-1.1,0.3c-0.3,0.2-0.5,0.5-0.7,0.9c-0.1,0.3-0.2,1-0.2,2v4h-2.3v-8.8h2.2v1.3c0.8-1,1.7-1.5,2.9-1.5
		c0.5,0,1,0.1,1.4,0.3c0.4,0.2,0.8,0.4,1,0.7c0.2,0.3,0.4,0.6,0.5,1c0.1,0.4,0.1,0.9,0.1,1.6V26.1z"/>
</g>
</svg>
