<?xml version="1.0" encoding="utf-8"?>
<!-- Generator: Adobe Illustrator 19.2.0, SVG Export Plug-In . SVG Version: 6.00 Build 0)  -->
<svg version="1.1" id="Layer_1" xmlns="http://www.w3.org/2000/svg" xmlns:xlink="http://www.w3.org/1999/xlink" x="0px" y="0px"
	 viewBox="0 0 40 40" style="enable-background:new 0 0 40 40;" xml:space="preserve">
<style type="text/css">
	.st0{fill:#E01076;}
</style>
<path class="st0" d="M9.7,15.3c0-0.3,0.1-0.7,0.1-1c0.1-1,0.4-2,1-2.8c0.5-0.9,1.2-1.5,2-2.1C13,9.2,13.2,9,13.4,8.9
	c0.7-0.6,1.5-0.5,2.2,0.1c0.7,0.7,1.2,1.6,1.7,2.4c0.3,0.5,0.6,1.1,0.8,1.7c0.2,0.8,0,1.6-0.6,2.1c-0.5,0.4-1,0.8-1.5,1.2
	c-0.6,0.5-0.8,1.1-0.7,1.9c0.2,1,0.8,1.8,1.3,2.6c0.9,1.2,1.9,2.3,3,3.3c0.6,0.4,1.1,0.8,1.9,1c0.6,0.1,1.1,0,1.6-0.5
	c0.5-0.4,0.9-0.9,1.4-1.3c0.7-0.6,1.5-0.7,2.3-0.3c0.6,0.2,1.1,0.6,1.5,1c0.6,0.5,1.2,1.1,1.8,1.6c0.2,0.2,0.4,0.4,0.5,0.7
	c0.3,0.6,0.3,1.3-0.2,1.8c-0.9,0.9-1.9,1.8-3.1,2.4c-1.1,0.5-2.3,0.6-3.5,0.5c-2.2-0.2-4.1-1.2-5.8-2.5c-2.7-2.2-5-4.8-6.7-7.8
	c-0.8-1.3-1.3-2.8-1.5-4.3c0-0.3,0-0.5-0.1-0.8C9.7,15.6,9.7,15.5,9.7,15.3L9.7,15.3z"/>
</svg>
