<?xml version="1.0" encoding="utf-8"?>
<!-- Generator: Adobe Illustrator 19.2.0, SVG Export Plug-In . SVG Version: 6.00 Build 0)  -->
<svg version="1.1" id="Layer_1" xmlns="http://www.w3.org/2000/svg" xmlns:xlink="http://www.w3.org/1999/xlink" x="0px" y="0px"
	 viewBox="0 0 100 100" style="enable-background:new 0 0 100 100;" xml:space="preserve">
<style type="text/css">
	.st0{fill:#E01076;}
</style>
<path class="st0" d="M96.3,49.6c0,0.2,0,0.4,0,0.6c-0.1,0.2-0.2,0.4-0.3,0.6c-0.8,2.1-3.1,2.6-4.7,1.1c-0.5-0.5-1-1-1.5-1.5
	c-0.7-0.7-1.4-1.4-2-2.2c-0.1,0.1-0.2,0.1-0.3,0.2c0,0.3-0.1,0.6-0.1,0.9c0,9.8,0,19.6,0,29.5c0,4.2,0,8.4,0,12.6
	c0,2.8-1.7,4.9-4.5,5.5c-0.2,0.1-0.4,0.2-0.6,0.3c-21.7,0-43.3,0-65,0c-0.2-0.1-0.4-0.2-0.7-0.3c-1.6-0.5-3-1.4-3.6-2.9
	c-0.4-1-0.6-2.1-0.6-3.2c0-13.1,0-26.1,0-39.2c0-0.5-0.1-0.9-0.1-1.4C11,51.4,9.7,52.6,8.6,54s-3.5,1.1-4.4-0.7
	C4,53,3.8,52.7,3.7,52.4c0-0.3,0-0.6,0-0.9C4,51,4.2,50.5,4.6,50c4.3-4.6,8.5-9.2,12.8-13.8c0.6-0.6,0.8-1.2,0.8-2.1
	c0-7.3,0-14.7,0-22c0-2.1,1.1-3.2,3.2-3.2c3.6,0,7.2,0,10.8,0c2.1,0,3.2,1.1,3.2,3.2c0,1.5,0,3,0,4.5c0,0.3,0,0.5,0.1,1
	c0.3-0.3,0.5-0.5,0.7-0.7c2.5-2.7,4.9-5.5,7.4-8.2c1.9-2,3.4-4.4,5.8-5.9c0.4,0,0.8,0,1.1,0c0.6,0.4,1.2,0.7,1.6,1.2
	c3.2,3.2,6.4,6.5,9.6,9.7c10.8,11.1,21.6,22,32.3,32.9C94.9,47.5,95.6,48.6,96.3,49.6z M82,65.6c0-7.4,0-14.8,0-22.1
	c0-0.6-0.2-1.3-0.6-1.7C71.2,31.4,61,21,50.8,10.7c-0.7-0.7-1.1-0.7-1.7,0c-3.3,3.6-6.7,7.1-10,10.7C32.4,28.6,25.8,35.7,19,42.9
	c-0.8,0.8-1.1,1.7-1.1,2.8c0,9.4,0,18.8,0,28.2c0,4.7,0,9.4,0,14c0,2.1,1.3,3.4,3.2,3.4c5.5,0,10.9,0,16.4,0c0.7,0,1-0.2,1-1
	c0-1.4,0-2.9,0-4.3c0-7,0-14.1,0-21.1c0-1.8,1-3,2.7-3c5.8,0,11.6,0,17.4,0c1.6,0,2.6,1.1,2.8,2.6c0,0.5,0,0.9,0,1.4
	c0,8,0,16.1,0,24.1c0,0.9,0.2,1.3,1.2,1.3c5.3,0,10.7,0,16,0c0.4,0,0.8,0,1.1-0.1c1.5-0.4,2.3-1.6,2.3-3.6C82,80.3,82,72.9,82,65.6z
	 M44.1,79.4c0,3.7,0,7.3,0,11c0,0.7,0.2,1,1,1c3.3,0,6.6,0,9.9,0c0.8,0,1-0.3,1-1c0-7.2,0-14.5,0-21.7c0-0.8-0.3-1.1-1.1-1.1
	c-3.2,0-6.5,0-9.7,0c-0.8,0-1.1,0.2-1.1,1.1C44.1,72.2,44.1,75.8,44.1,79.4z M23.8,29.3c2-1.9,3.9-3.7,5.8-5.6
	c0.2-0.2,0.3-0.6,0.3-1c0-2.4,0-4.8,0-7.2c0-0.8-0.2-1.1-1-1.1c-1.3,0-2.6,0.1-3.9,0c-0.9,0-1.3,0.2-1.3,1.2c0,4.3,0,8.5,0,12.8
	C23.8,28.8,23.8,29,23.8,29.3z"/>
</svg>
