<?xml version="1.0" encoding="utf-8"?>
<!-- Generator: Adobe Illustrator 19.2.0, SVG Export Plug-In . SVG Version: 6.00 Build 0)  -->
<svg version="1.1" id="Layer_1" xmlns="http://www.w3.org/2000/svg" xmlns:xlink="http://www.w3.org/1999/xlink" x="0px" y="0px"
	 viewBox="0 0 100 100" style="enable-background:new 0 0 100 100;" xml:space="preserve">
<style type="text/css">
	.st0{fill:#E01076;}
</style>
<g>
	<path class="st0" d="M23.1,4.6c17.9,0,35.9,0,53.8,0c0.6,0.6,1.3,1.2,1.7,2c1.2,2.5,2.3,5,3.4,7.6c3.7,8.2,7.3,16.4,10.9,24.7
		c0.3,0.7,0.5,1.5,0.5,2.3c0,17,0,34,0.1,51c0,1.6-0.4,2.7-1.8,3.4c-27.8,0-55.6,0-83.3,0c-1.4-0.7-1.8-1.8-1.8-3.4
		c0.1-17,0-34,0.1-51c0-0.8,0.2-1.7,0.5-2.4c4.5-10.6,9.2-21,13.8-31.5C21.5,6.2,22,5.2,23.1,4.6z M50,90.1c12.3,0,24.7,0,37,0
		c0.9,0,1.2-0.2,1.2-1.2c0-14.9,0-29.7,0-44.6c0-0.9-0.3-1.1-1.2-1.1c-7.4,0-14.7,0-22.1,0c-1.2,0-1.2,0-1.2,1.2c0,3.7,0,7.4,0,11.1
		c0,1.8-0.8,2.7-2.6,2.7c-7.4,0-14.8,0-22.2,0c-1.9,0-2.7-0.8-2.7-2.7c0-3.7,0-7.4,0-11.1c0-0.8-0.2-1.1-1.1-1.1
		c-7.4,0-14.9,0-22.3,0c-0.8,0-1.1,0.2-1.1,1.1c0,14.8,0,29.6,0,44.3c0,1.5,0,1.5,1.5,1.5C25.5,90.1,37.7,90.1,50,90.1z M49.9,52.9
		c2.5,0,5,0,7.6,0c0.9,0,1.1-0.3,1.1-1.1c-0.1-1.4,0-2.8,0-4.1c0-2.4,0.1-4.8-0.1-7.2c-0.5-5.1-1.2-10.2-1.7-15.3
		c-0.5-4.8-1-9.6-1.5-14.5c-0.1-0.7-0.3-1-1-1c-2.8,0-5.5,0-8.3,0c-0.6,0-1,0.2-1,0.9c-0.4,4.2-0.9,8.4-1.3,12.5c-0.3,3-0.7,6-1,8.9
		c-0.3,3-0.8,6-1,9.1c-0.2,3.6,0,7.2-0.1,10.9c0,0.7,0.2,0.8,0.9,0.8C44.8,52.9,47.4,52.9,49.9,52.9z M86.6,38
		c-0.2-0.5-0.4-1-0.6-1.4c-3.8-8.6-7.6-17.1-11.4-25.7c-0.3-0.8-0.7-1.1-1.6-1.1c-3.8,0-7.7,0-11.5,0c-1.1,0-1.2,0.1-1,1.2
		c0.2,2.1,0.5,4.3,0.7,6.4c0.7,6.6,1.5,13.2,2.2,19.7c0.1,0.8,0.4,1,1.1,1c7,0,13.9,0,20.9,0C85.8,38.2,86.1,38.1,86.6,38z M13.4,38
		c0.5,0.1,0.8,0.1,1.2,0.1c1.3,0,2.6,0,4,0c5.7,0,11.4,0,17.1,0c0.7,0,1-0.2,1-0.9c0.1-1.1,0.2-2.2,0.4-3.3c0.5-4.4,1-8.8,1.5-13.2
		c0.4-3.3,0.7-6.6,1.1-10c0.1-0.6,0-1-0.8-1c-4,0-8,0-12.1,0c-0.6,0-0.9,0.2-1.1,0.7c-3.2,7.3-6.4,14.5-9.7,21.8
		C15.1,34.2,14.2,36,13.4,38z"/>
	<path class="st0" d="M50,76.8c-7.4,0-14.9,0-22.3,0c-1.2,0-2.1-0.6-2.4-1.4c-0.4-1-0.1-2.6,0.7-3.2c0.4-0.3,1.1-0.5,1.6-0.5
		c10.2,0,20.3,0,30.5,0c4.8,0,9.5,0,14.3,0c1.2,0,2.2,0.6,2.4,1.6c0.4,1.4,0,2.8-1.1,3.3c-0.4,0.2-0.9,0.3-1.4,0.3
		C64.9,76.8,57.4,76.8,50,76.8z"/>
	<path class="st0" d="M50,79c5,0,10,0,14.9,0c1.2,0,2.1,0.5,2.4,1.4c0.4,1.1,0.1,2.5-0.8,3.2c-0.4,0.3-1,0.4-1.4,0.4
		c-8,0-16.1,0-24.1,0c-2,0-4,0-6,0c-1.6,0-2.4-0.9-2.4-2.6s0.8-2.5,2.4-2.5C40,79,45,79,50,79z"/>
</g>
</svg>
