<?xml version="1.0" encoding="utf-8"?>
<!-- Generator: Adobe Illustrator 19.2.0, SVG Export Plug-In . SVG Version: 6.00 Build 0)  -->
<svg version="1.1" id="Layer_1" xmlns="http://www.w3.org/2000/svg" xmlns:xlink="http://www.w3.org/1999/xlink" x="0px" y="0px"
	 viewBox="0 0 100 100" style="enable-background:new 0 0 100 100;" xml:space="preserve">
<style type="text/css">
	.st0{fill:#E01076;}
</style>
<g>
	<path class="st0" d="M50,95.7c-14.8,0-29.6,0-44.4,0c-1.3,0-1.3,0-1.3-1.3c0-17.2,0-34.4,0-51.6c0-0.6-0.1-1.3-0.4-1.8
		c-1.1-1.9-1.5-4-1.6-6.2c-0.2-4.5,0.5-9,1.3-13.4c0.5-2.5,0.8-5,0.7-7.6c-0.1-2.8,0-5.6,0-8.4c0-0.9,0.3-1.1,1.2-1.1
		c12.7,0,25.5,0,38.2,0c16.9,0,33.8,0,50.7,0c1.3,0,1.3,0,1.3,1.3c0,2.8-0.1,5.7,0,8.5c0.1,2.3,0.3,4.6,0.6,6.9
		c0.4,3.1,0.9,6.1,1.3,9.2c0.3,2.5,0.4,5.1-0.2,7.6c-0.2,1-0.8,2-1.1,3c-0.2,0.7-0.5,1.4-0.5,2.1c0,17.2,0,34.4,0,51.6
		c0,1.3,0,1.3-1.3,1.3C79.6,95.7,64.8,95.7,50,95.7z M34.7,91.6c8.3,0,16.7,0,25,0c1.3,0,1.3,0,1.3-1.3c0-12.2,0-24.5,0-36.7
		c0-0.9,0.3-1.2,1.2-1.2c7.1,0,14.3,0,21.4,0c1.2,0,1.2,0,1.2,1.2c0,9.1,0,18.2,0,27.3c0,3.3,0,6.5,0,9.8c0,0.7,0.2,0.9,0.9,0.9
		c1.7,0,3.4,0,5.1,0c0.7,0,0.9-0.3,0.9-0.9c0-0.3,0-0.6,0-0.9c0-14.4,0-28.7,0-43.1c0-0.2,0-0.5,0-0.7c0-0.7-0.3-0.9-1-0.8
		c-3.4,0.8-6.5,0.1-9.3-1.9c-0.6-0.4-1.1-0.5-1.7,0c-4,3-9.4,3-13.4,0.1c-0.7-0.5-1.2-0.6-2,0c-3.7,2.8-9.4,2.8-13.1,0.1
		c-0.9-0.6-1.4-0.7-2.3,0c-3.7,2.7-9.4,2.7-13.1,0c-0.8-0.6-1.4-0.6-2.2,0c-3.9,2.8-9.4,2.8-13.3-0.1c-0.7-0.5-1.1-0.5-1.8,0
		c-2.7,1.9-5.7,2.6-9,2c-1.2-0.2-1.2-0.2-1.2,0.9c0,14.7,0,29.4,0,44.1c0,1.3,0,1.3,1.3,1.3C17.9,91.6,26.3,91.6,34.7,91.6z
		 M50.1,8.4c-5.7,0-11.3,0-17,0c-7.9,0-15.7,0-23.6,0c-0.9,0-1.3,0.3-1.2,1.2c0,1.3,0,2.6,0,4c0,1.6,0,1.6,1.6,1.6
		c18.8,0,37.5,0,56.3,0c8.1,0,16.2,0,24.3,0c1.2,0,1.2-0.1,1.3-1.3c0-1.4,0-2.8,0-4.2s0-1.4-1.4-1.4C76.9,8.4,63.5,8.4,50.1,8.4z
		 M80.7,74.1c0-5.5,0-10.9,0-16.4c0-1.3,0-1.3-1.3-1.3c-4.4,0-8.7,0-13.1,0c-1.1,0-1.2,0-1.2,1.2c0,10.9,0,21.9,0,32.8
		c0,0.8,0.2,1.2,1.1,1.2c4.4,0,8.9,0,13.3,0c0.9,0,1.2-0.3,1.2-1.2C80.7,85,80.7,79.5,80.7,74.1z M48,29.2c0-3,0-6,0-8.9
		c0-0.7-0.2-1-0.9-1c-3.1,0-6.3,0-9.4,0c-0.7,0-1,0.3-1,1c0,5.9,0,11.9,0,17.8c0,0.5,0.3,1.1,0.7,1.5c2.8,2.5,6.8,2.5,9.8,0.1
		c0.6-0.4,0.8-0.9,0.8-1.7C48,35.1,48,32.1,48,29.2z M52,29.2c0,2.9,0,5.9,0,8.8c0,0.5,0.3,1.1,0.6,1.4c2.8,2.5,6.9,2.6,9.9,0.2
		c0.6-0.5,0.8-1,0.8-1.7c0-5.8,0-11.7,0-17.5c0-0.8-0.3-1.1-1.1-1.1c-3,0-6,0-9,0c-0.9,0-1.2,0.3-1.2,1.1C52,23.4,52,26.3,52,29.2z
		 M78.5,29.2c0-3,0-6,0-8.9c0-0.8-0.2-1-1-1c-3,0-6.1,0-9.1,0c-0.9,0-1.1,0.3-1.1,1.1c0,5.9,0,11.8,0,17.7c0,0.5,0.3,1.1,0.6,1.4
		c2.6,2.5,6.8,2.5,9.7,0.2c0.6-0.5,0.8-1,0.8-1.7C78.4,35.1,78.5,32.2,78.5,29.2z M21.5,29.3c0,3,0,6,0,8.9c0,0.4,0.1,0.9,0.4,1.1
		c2.7,2.7,7.4,2.8,10.2,0.1c0.3-0.3,0.6-0.8,0.6-1.3c0-6,0-11.9,0-17.9c0-0.7-0.2-1-1-1c-3.1,0-6.1,0-9.2,0c-0.8,0-1,0.3-1,1
		C21.5,23.3,21.5,26.3,21.5,29.3z M17.4,29.4c0-3,0-6,0-9c0-0.7-0.2-1-1-1c-2.5,0-5,0-7.5,0c-0.7,0-1,0.2-1.1,0.9
		C7.3,24,6.7,27.8,6.3,31.7c-0.3,2-0.2,4.1,0.5,6s1.9,3.4,4.1,3.7s4.1-0.3,5.8-1.7c0.5-0.4,0.7-0.9,0.7-1.6
		C17.4,35.1,17.4,32.2,17.4,29.4z M82.6,29.2c0,2.6,0.1,5.3,0,7.9c-0.1,1.9,0.8,2.8,2.3,3.5c0.7,0.3,1.6,0.6,2.4,0.7
		c3,0.5,5.2-0.9,6.1-3.9c0.8-2.7,0.6-5.4,0.2-8c-0.4-3-0.9-6.1-1.4-9.1c-0.1-0.7-0.4-1-1.1-1c-2.5,0-4.9,0-7.4,0
		c-0.8,0-1.1,0.2-1.1,1.1C82.6,23.3,82.6,26.2,82.6,29.2z"/>
	<path class="st0" d="M34.7,52.4c6.1,0,12.2,0,18.3,0c0.9,0,1.2,0.2,1.2,1.2c0,10,0,20,0,30c0,0.9-0.2,1.2-1.1,1.2
		c-12.2,0-24.5,0-36.7,0c-0.9,0-1.2-0.2-1.2-1.1c0-10,0-20.1,0-30.1c0-0.9,0.3-1.1,1.2-1.1C22.5,52.4,28.6,52.4,34.7,52.4z
		 M34.7,80.7c4.7,0,9.5,0,14.2,0c0.8,0,1.2-0.2,1.2-1.1c0-7.4,0-14.8,0-22.1c0-0.8-0.2-1.1-1.1-1.1c-9.5,0-19.1,0-28.6,0
		c-0.9,0-1.2,0.3-1.2,1.2c0,7.3,0,14.7,0,22c0,0.9,0.3,1.2,1.2,1.2C25.2,80.7,29.9,80.7,34.7,80.7z"/>
</g>
</svg>
