<?xml version="1.0" encoding="utf-8"?>
<!-- Generator: Adobe Illustrator 19.2.0, SVG Export Plug-In . SVG Version: 6.00 Build 0)  -->
<svg version="1.1" id="Layer_1" xmlns="http://www.w3.org/2000/svg" xmlns:xlink="http://www.w3.org/1999/xlink" x="0px" y="0px"
	 viewBox="0 0 100 100" style="enable-background:new 0 0 100 100;" xml:space="preserve">
<style type="text/css">
	.st0{fill:#E01076;}
</style>
<g>
	<path class="st0" d="M39.1,2.1c7.2,0,14.5,0,21.7,0c0.4,0.2,0.9,0.4,1.4,0.6c0.4,0.1,0.8,0,1.1,0.2c2,0.7,3.9,1.7,5.4,3.3
		c2,2.2,3.2,4.8,3.4,7.8c0.2,1.7,0.3,3.5,0.5,5.2c0.1,1.3,0.3,2.6,0.5,3.9c0.2,1.7,0.5,3.5,0.7,5.2c0.2,1.9,0.3,3.8,0.5,5.7
		c0,0.1,0,0.3,0.1,0.4c0.2,1.8,0.6,3.5,0.7,5.3c0.1,2.8-0.7,5.3-2.3,7.6c-2.4,3.4-5.8,5-9.8,5.2c-2.9,0.1-5.9,0-8.8,0
		c-1.1,0-1.3,0.2-1.3,1.3s0,2.2,0,3.4s0.2,1.3,1.3,1.3c4.2,0,8.5,0,12.7,0c1.7,0,3.3-0.1,4.9,0.6c0.2,0.1,0.6-0.2,0.7-0.3
		c0.2-0.5,0.3-1.1,0.5-1.7c0.6-2.8,1.8-5.4,3.6-7.6c1.5-2,3.6-3.3,5.9-4.1c1.1-0.4,2.2-0.4,3.4-0.6c0,1.8,0,3.3,0,4.8
		c0,0.6-0.1,0.9-0.7,1.1c-3,0.6-4.8,2.5-5.8,5.3c-0.5,1.6-1,3.1-1.3,4.8c-0.3,2-0.6,4-0.6,6.1c0,1.8,0,3.5-0.7,5.1s-1.6,3-3.1,4
		c-1.8,1.2-3.8,1.8-6,1.8c-4.1,0-8.1,0-12.2,0c-0.6,0-1.2,0-1.7,0c-0.6,0-0.8,0.2-0.8,0.9c0,2.3,0,4.6,0,6.9c0,0.4,0.4,0.9,0.7,1.1
		c1.2,0.5,2.5,0.8,3.6,1.4c2.9,1.5,5.1,3.7,6.5,6.7c0.3,0.5,0.2,0.8-0.4,1c-0.8,0.3-1.6,0.7-2.5,1c-2.4,0.8-1.7,1.2-3.1-0.8
		c-1-1.4-2.3-2.4-3.8-3.2c-0.7-0.4-1.2-0.2-1.1,0.5c0,1.6,0.1,3.1,0.1,4.7c-2,0-4,0-6,0c0-1.4,0.1-2.8,0.1-4.1
		c0-0.4-0.1-0.8-0.2-1.2c-0.4,0.1-0.9,0.1-1.3,0.3c-1.7,0.8-3,2.1-3.9,3.7c-0.4,0.6-0.7,0.8-1.4,0.5c-1.2-0.6-2.4-1.1-3.6-1.5
		c-0.6-0.2-0.7-0.4-0.4-1c0.8-1.7,2-3.1,3.3-4.4c1.8-1.8,4.1-3,6.5-3.6c0.8-0.2,1.1-0.5,1.1-1.3c0-2.1,0-4.2,0-6.3
		c0-1.3,0-1.3-1.3-1.3c-4.6,0-9.2,0-13.9,0c-1,0-2.1-0.1-3.1-0.5c-3.6-1.4-5.9-3.8-6.3-7.8c-0.1-1.1,0.1-2.3-0.1-3.4
		c-0.3-2.7-0.6-5.3-1.2-7.9c-0.5-2-1.3-4-2.9-5.5c-1.1-1.1-2.4-1.5-3.8-1.9c-0.3-0.1-0.6-0.3-0.6-0.5c0-1.7,0-3.4,0-5.2
		c1.5,0,2.8,0.4,4.2,0.8c4.2,1.5,6.5,4.7,8,8.7c0.5,1.4,0.8,2.9,1.2,4.3c0.1,0.5,0.3,0.5,0.8,0.4c1.2-0.3,2.4-0.6,3.6-0.6
		c4.7-0.1,9.4,0,14,0c0.9,0,1.3-0.3,1.3-1.2c0-1.1,0-2.2,0-3.4c0-1.3-0.1-1.4-1.4-1.4c-2.7,0-5.4,0.1-8.1,0
		c-1.5-0.1-3.1-0.3-4.5-0.7c-5.4-2-7.7-6.4-8.1-11c-0.2-1.9,0.2-3.9,0.4-5.9c0.2-1.9,0.5-3.7,0.7-5.6c0.2-1.7,0.3-3.5,0.5-5.2
		c0.2-1.5,0.4-2.9,0.6-4.4c0.2-1.6,0.6-3.3,0.6-4.9c0.1-2.4,0.6-4.6,1.8-6.6c1.9-3.2,4.6-5.3,8.4-5.8C38.4,2.6,38.8,2.3,39.1,2.1z
		 M50,46.9c3.3,0,6.5,0,9.8,0c1.4,0,2.7-0.2,4.1-0.3c2.3-0.2,3.8-1.6,4.9-3.6c1.2-2.2,0.4-4.5,0.3-6.8c-0.1-1.8-0.5-3.5-0.7-5.3
		C68.2,29,68,27,67.8,25.1c-0.1-1.2-0.2-2.4-0.4-3.6c-0.2-2.2-0.5-4.4-0.8-6.5c-0.5-4-2.6-6.8-7-6.9C53.2,7.9,46.8,8,40.4,8
		c-3.5,0-6,2.1-6.7,5.3c-0.3,1.5-0.5,3.1-0.7,4.6c-0.3,2.5-0.6,5-0.8,7.5c-0.3,3.3-0.7,6.5-1,9.8c-0.1,1.3-0.2,2.6-0.5,3.9
		c-0.4,2.6,0.5,4.6,2.4,6.2c1.4,1.2,3.1,1.5,4.8,1.5C42,47,46,46.9,50,46.9z M50,64c-6,0-12,0-18,0c-1.7,0-3.1,1-3.6,2.5
		c-0.6,1.6-0.1,3.7,1.3,4.6c0.8,0.5,1.8,0.8,2.8,0.8c11.7,0.1,23.5,0,35.2,0c0.7,0,1.6-0.1,2.2-0.5c1.8-1,2.5-2.9,1.8-4.9
		c-0.5-1.5-2.1-2.6-3.9-2.6C61.9,64.1,55.9,64,50,64z"/>
</g>
</svg>
