<?xml version="1.0" encoding="utf-8"?>
<!-- Generator: Adobe Illustrator 19.2.0, SVG Export Plug-In . SVG Version: 6.00 Build 0)  -->
<svg version="1.1" id="Layer_1" xmlns="http://www.w3.org/2000/svg" xmlns:xlink="http://www.w3.org/1999/xlink" x="0px" y="0px"
	 viewBox="0 0 320 60" style="enable-background:new 0 0 320 60;" xml:space="preserve">
<style type="text/css">
	.st0{fill:#5553EF;}
	.st1{fill:#E01076;}
</style>
<g>
	<g>
		<path class="st0" d="M26,60L0,45V15L26,0l26,15v30L26,60z M5.6,41.8L26,53.6l20.4-11.8V18.2L26,6.4L5.6,18.2V41.8z"/>
	</g>
</g>
<polygon class="st1" points="26,9.7 26,50.2 43.8,40.3 43.8,31.7 34.6,35.3 34.6,14.2 "/>
<polygon class="st1" points="11.4,41.9 18.3,45.9 18.3,30 14.8,37.1 11.4,30 "/>
<polygon class="st1" points="19.4,13.2 14.8,23.5 11.9,17.7 "/>
<g>
	<path class="st1" d="M90.2,14.8L97,36h0.1l6.9-21.3h9.3v30.4h-7.1v-7.5l0.7-13.9l-0.1,0l-7.3,21.5h-4.8l-7.2-21.3l-0.1,0L88,37.6
		v7.5h-7.1V14.8H90.2z"/>
	<path class="st1" d="M116.8,33.7c0-3.4,1-6.2,2.9-8.3c1.9-2.1,4.6-3.2,8-3.2c3.5,0,6.1,1.1,8.1,3.2c1.9,2.1,2.9,4.9,2.9,8.3v0.4
		c0,3.4-1,6.2-2.9,8.3c-1.9,2.1-4.6,3.2-8,3.2c-3.5,0-6.2-1.1-8.1-3.2c-1.9-2.1-2.9-4.9-2.9-8.3V33.7z M123.8,34.1
		c0,1.9,0.3,3.4,0.9,4.5c0.6,1.1,1.6,1.6,3,1.6c1.4,0,2.4-0.5,3-1.6c0.6-1.1,0.9-2.6,0.9-4.5v-0.4c0-1.8-0.3-3.3-0.9-4.4
		c-0.6-1.1-1.6-1.7-3-1.7c-1.4,0-2.4,0.6-3,1.7c-0.6,1.1-0.9,2.6-0.9,4.4V34.1z"/>
	<path class="st1" d="M149.9,35.9l0.4,2.4l0.1,0l0.5-2.4l3-13.3h7.4L154,45.2h-7.2l-7.4-22.6h7.4L149.9,35.9z"/>
	<path class="st1" d="M170.8,17.3h-7.1v-4.7h7.1V17.3z M170.8,45.2h-7.1V22.6h7.1V45.2z"/>
	<path class="st1" d="M181.7,22.6l0.3,3.2c0.7-1.1,1.7-2,2.7-2.6c1.1-0.6,2.3-1,3.6-1c2.2,0,3.9,0.7,5.2,2.2
		c1.2,1.4,1.9,3.7,1.9,6.9v14h-7.1v-14c0-1.3-0.3-2.2-0.8-2.7c-0.5-0.5-1.3-0.8-2.4-0.8c-0.7,0-1.2,0.1-1.7,0.4
		c-0.5,0.2-0.9,0.6-1.3,1v16.3h-7V22.6H181.7z"/>
	<path class="st1" d="M198.3,33.9c0-3.5,0.8-6.4,2.3-8.5c1.5-2.2,3.7-3.2,6.5-3.2c1.2,0,2.2,0.3,3.2,0.8c0.9,0.6,1.7,1.4,2.3,2.4
		l0.5-2.8h6.2v21.7c0,3-1,5.4-3.1,7.3c-2.1,1.8-4.9,2.7-8.4,2.7c-1.2,0-2.4-0.2-3.7-0.5c-1.3-0.3-2.5-0.8-3.7-1.3l1.1-5.2
		c1,0.4,2,0.8,2.9,1c0.9,0.2,2,0.3,3.2,0.3c1.4,0,2.6-0.4,3.3-1.2c0.8-0.8,1.1-1.8,1.1-3.2v-1.1c-0.6,0.8-1.4,1.4-2.2,1.9
		s-1.8,0.6-2.9,0.6c-2.8,0-4.9-1-6.5-3.1s-2.3-4.8-2.3-8.2V33.9z M205.3,34.4c0,1.8,0.3,3.3,0.8,4.3s1.4,1.5,2.7,1.5
		c0.8,0,1.4-0.1,2-0.4c0.5-0.2,1-0.6,1.4-1.1v-9.5c-0.3-0.5-0.8-0.9-1.3-1.2c-0.5-0.3-1.2-0.4-2-0.4c-1.3,0-2.2,0.6-2.7,1.7
		c-0.6,1.2-0.8,2.7-0.8,4.6V34.4z"/>
</g>
<g>
	<path class="st0" d="M229.4,39.7h13.1v5.4h-20.2V14.8h7.1V39.7z"/>
	<path class="st0" d="M255.4,45.6c-3.3,0-6-1-8-3.1s-3-4.7-3-7.9v-0.8c0-3.4,0.9-6.3,2.7-8.4c1.8-2.2,4.4-3.3,7.7-3.2
		c3.1,0,5.5,0.9,7.2,2.8c1.7,1.8,2.6,4.3,2.6,7.5v3.7h-12.9l0,0.1c0.2,1.2,0.6,2.1,1.4,2.9s1.9,1.1,3.2,1.1c1.3,0,2.4-0.1,3.2-0.3
		c0.8-0.2,1.8-0.6,3-1.1l1.7,4.3c-1,0.7-2.3,1.3-3.8,1.8C258.9,45.4,257.2,45.6,255.4,45.6z M254.9,27.6c-1,0-1.8,0.4-2.3,1.1
		c-0.5,0.7-0.8,1.7-0.9,2.9l0.1,0.1h6.1v-0.5c0-1.1-0.2-2-0.7-2.6S255.9,27.6,254.9,27.6z"/>
	<path class="st0" d="M280.7,45.2c-0.2-0.4-0.4-0.8-0.5-1.2c-0.2-0.4-0.3-0.9-0.4-1.4c-0.7,0.9-1.5,1.7-2.4,2.2s-2.1,0.8-3.4,0.8
		c-2.1,0-3.9-0.6-5.2-1.9c-1.3-1.2-2-2.9-2-5c0-2.2,0.8-4,2.5-5.2s4.2-1.8,7.7-1.8h2.6v-1.6c0-1-0.2-1.7-0.7-2.2
		c-0.5-0.5-1.2-0.8-2.1-0.8c-0.8,0-1.4,0.2-1.8,0.6c-0.4,0.4-0.6,1-0.6,1.8l-6.8,0l0-0.1c-0.1-2.1,0.8-3.8,2.6-5.2
		c1.8-1.4,4.2-2.1,7.2-2.1c2.8,0,5,0.7,6.8,2.1c1.7,1.4,2.6,3.4,2.6,6v8.5c0,1.2,0.1,2.3,0.3,3.4s0.5,2.1,0.9,3.1L280.7,45.2z
		 M276.1,40.6c0.7,0,1.3-0.1,1.9-0.4c0.6-0.3,1.1-0.6,1.4-1.1v-3.5h-2.5c-1.1,0-1.9,0.3-2.4,0.8s-0.8,1.2-0.8,2.1
		c0,0.6,0.2,1.2,0.7,1.6C274.8,40.4,275.4,40.6,276.1,40.6z"/>
	<path class="st0" d="M289.5,33.9c0-3.5,0.8-6.4,2.3-8.5s3.7-3.2,6.5-3.2c1,0,2,0.2,2.8,0.7c0.8,0.5,1.6,1.2,2.3,2.1V12.6h7.1v32.6
		h-6.1l-0.5-2.8c-0.7,1-1.5,1.8-2.4,2.4c-0.9,0.5-2,0.8-3.1,0.8c-2.8,0-4.9-1-6.5-3.1c-1.5-2.1-2.3-4.8-2.3-8.2V33.9z M296.6,34.4
		c0,1.8,0.3,3.3,0.8,4.3c0.5,1,1.4,1.5,2.7,1.5c0.7,0,1.4-0.1,2-0.4c0.6-0.3,1-0.7,1.4-1.2v-9.1c-0.4-0.6-0.8-1.1-1.4-1.4
		c-0.6-0.3-1.2-0.5-1.9-0.5c-1.3,0-2.2,0.6-2.7,1.7c-0.6,1.2-0.8,2.7-0.8,4.6V34.4z"/>
</g>
</svg>
